<svg width="175" height="46" viewBox="0 0 175 46" fill="none" xmlns="http://www.w3.org/2000/svg">
<path fill-rule="evenodd" clip-rule="evenodd" d="M3.83331 16.25C4.3856 16.25 4.83331 16.6977 4.83331 17.25C4.83331 22.0681 6.7473 26.6889 10.1542 30.0958C13.5611 33.5027 18.1819 35.4167 23 35.4167C27.8181 35.4167 32.4388 33.5027 35.8458 30.0958C39.2527 26.6889 41.1666 22.0681 41.1666 17.25C41.1666 16.6977 41.6144 16.25 42.1666 16.25C42.7189 16.25 43.1666 16.6977 43.1666 17.25C43.1666 22.5985 41.042 27.728 37.26 31.51C33.478 35.292 28.3485 37.4167 23 37.4167C17.6514 37.4167 12.522 35.292 8.73999 31.51C4.95801 27.728 2.83331 22.5985 2.83331 17.25C2.83331 16.6977 3.28103 16.25 3.83331 16.25Z" fill="url(#paint0_linear_428_6)"/>
<path fill-rule="evenodd" clip-rule="evenodd" d="M2.83331 17.25C2.83331 16.6977 3.28103 16.25 3.83331 16.25C6.48164 16.25 9.10403 16.7716 11.5508 17.7851C13.9975 18.7986 16.2207 20.284 18.0933 22.1567C19.9659 24.0293 21.4514 26.2525 22.4649 28.6992C22.6619 29.1749 22.8403 29.6572 23 30.145C23.9764 27.1613 25.6452 24.4181 27.9067 22.1567C31.6886 18.3747 36.8181 16.25 42.1666 16.25C42.7189 16.25 43.1666 16.6977 43.1666 17.25C43.1666 17.8023 42.7189 18.25 42.1666 18.25C37.3485 18.25 32.7278 20.164 29.3209 23.5709C25.914 26.9778 24 31.5986 24 36.4167C24 36.969 23.5523 37.4167 23 37.4167C22.4477 37.4167 22 36.969 22 36.4167C22 34.031 21.5301 31.6687 20.6171 29.4646C19.7042 27.2605 18.366 25.2578 16.6791 23.5709C14.9922 21.884 12.9895 20.5458 10.7854 19.6329C8.58131 18.7199 6.21899 18.25 3.83331 18.25C3.28103 18.25 2.83331 17.8023 2.83331 17.25Z" fill="url(#paint1_linear_428_6)"/>
<path fill-rule="evenodd" clip-rule="evenodd" d="M23.6946 6.94737C23.6155 6.87087 23.5267 6.80993 23.4322 6.76466C23.2958 6.69927 23.1478 6.66673 23 6.66675C22.749 6.66678 22.4983 6.76077 22.3054 6.94737C20.2719 8.88973 18.6803 11.2471 17.6389 13.8593C16.5968 16.4733 16.1301 19.2811 16.2704 22.0916C16.298 22.6432 16.7674 23.068 17.319 23.0405C17.8706 23.013 18.2955 22.5435 18.2679 21.9919C18.1419 19.4683 18.561 16.9471 19.4967 14.6C20.3112 12.5571 21.5003 10.6878 23 9.08708C24.4997 10.6878 25.6888 12.5571 26.5033 14.6C27.439 16.9471 27.8581 19.4683 27.7321 21.9919C27.7045 22.5435 28.1294 23.013 28.681 23.0405C29.2326 23.068 29.702 22.6432 29.7296 22.0916C29.8699 19.2811 29.4032 16.4733 28.3611 13.8593C27.3197 11.2471 25.7281 8.88973 23.6946 6.94737Z" fill="url(#paint2_linear_428_6)"/>
<path d="M51 31.6932V14.2386H62.5568V17.2812H54.6903V21.4403H61.7898V24.483H54.6903V31.6932H51Z" fill="white"/>
<path d="M65.0391 31.6932V14.2386H71.9254C73.2436 14.2386 74.3686 14.4744 75.3004 14.946C76.2379 15.4119 76.951 16.0739 77.4396 16.9318C77.9339 17.7841 78.1811 18.7869 78.1811 19.9403C78.1811 21.0994 77.9311 22.0966 77.4311 22.9318C76.9311 23.7614 76.2067 24.3977 75.2578 24.8409C74.3146 25.2841 73.1726 25.5057 71.8317 25.5057H67.2209V22.5398H71.2351C71.9396 22.5398 72.5249 22.4432 72.9908 22.25C73.4567 22.0568 73.8033 21.767 74.0305 21.3807C74.2635 20.9943 74.38 20.5142 74.38 19.9403C74.38 19.3608 74.2635 18.8722 74.0305 18.4744C73.8033 18.0767 73.4538 17.7756 72.9822 17.571C72.5163 17.3608 71.9283 17.2557 71.218 17.2557H68.7294V31.6932H65.0391ZM74.4652 23.75L78.8033 31.6932H74.7294L70.4851 23.75H74.4652Z" fill="white"/>
<path d="M83.7976 31.6932H79.843L85.8686 14.2386H90.6243L96.6413 31.6932H92.6868L88.3146 18.2273H88.1783L83.7976 31.6932ZM83.5504 24.8324H92.8913V27.7131H83.5504V24.8324Z" fill="white"/>
<path d="M113.342 14.2386V31.6932H110.154L102.56 20.7074H102.433V31.6932H98.7422V14.2386H101.981L109.515 25.2159H109.668V14.2386H113.342Z" fill="white"/>
<path d="M131.791 20.3494H128.058C127.99 19.8665 127.851 19.4375 127.641 19.0625C127.43 18.6818 127.161 18.358 126.831 18.0909C126.501 17.8239 126.121 17.6193 125.689 17.4773C125.263 17.3352 124.8 17.2642 124.3 17.2642C123.396 17.2642 122.609 17.4886 121.939 17.9375C121.268 18.3807 120.749 19.0284 120.379 19.8807C120.01 20.7273 119.825 21.7557 119.825 22.9659C119.825 24.2102 120.01 25.2557 120.379 26.1023C120.754 26.9489 121.277 27.5881 121.947 28.0199C122.618 28.4517 123.393 28.6676 124.274 28.6676C124.768 28.6676 125.226 28.6023 125.646 28.4716C126.072 28.3409 126.45 28.1506 126.78 27.9006C127.109 27.6449 127.382 27.3352 127.598 26.9716C127.82 26.608 127.973 26.1932 128.058 25.7273L131.791 25.7443C131.695 26.5455 131.453 27.3182 131.067 28.0625C130.686 28.8011 130.172 29.4631 129.524 30.0483C128.882 30.6278 128.115 31.0881 127.223 31.429C126.337 31.7642 125.334 31.9318 124.214 31.9318C122.658 31.9318 121.266 31.5795 120.038 30.875C118.817 30.1705 117.851 29.1506 117.141 27.8153C116.436 26.4801 116.084 24.8636 116.084 22.9659C116.084 21.0625 116.442 19.4432 117.158 18.108C117.874 16.7727 118.845 15.7557 120.072 15.0568C121.3 14.3523 122.68 14 124.214 14C125.226 14 126.163 14.142 127.027 14.4261C127.896 14.7102 128.666 15.125 129.337 15.6705C130.007 16.2102 130.553 16.8722 130.973 17.6562C131.399 18.4403 131.672 19.3381 131.791 20.3494Z" fill="white"/>
<path d="M150.477 22.9659C150.477 24.8693 150.116 26.4886 149.395 27.8239C148.679 29.1591 147.702 30.179 146.463 30.8835C145.23 31.5824 143.844 31.9318 142.304 31.9318C140.753 31.9318 139.361 31.5795 138.128 30.875C136.895 30.1705 135.92 29.1506 135.205 27.8153C134.489 26.4801 134.131 24.8636 134.131 22.9659C134.131 21.0625 134.489 19.4432 135.205 18.108C135.92 16.7727 136.895 15.7557 138.128 15.0568C139.361 14.3523 140.753 14 142.304 14C143.844 14 145.23 14.3523 146.463 15.0568C147.702 15.7557 148.679 16.7727 149.395 18.108C150.116 19.4432 150.477 21.0625 150.477 22.9659ZM146.736 22.9659C146.736 21.733 146.551 20.6932 146.182 19.8466C145.818 19 145.304 18.358 144.639 17.9205C143.974 17.483 143.196 17.2642 142.304 17.2642C141.412 17.2642 140.634 17.483 139.969 17.9205C139.304 18.358 138.787 19 138.418 19.8466C138.054 20.6932 137.872 21.733 137.872 22.9659C137.872 24.1989 138.054 25.2386 138.418 26.0852C138.787 26.9318 139.304 27.5739 139.969 28.0114C140.634 28.4489 141.412 28.6676 142.304 28.6676C143.196 28.6676 143.974 28.4489 144.639 28.0114C145.304 27.5739 145.818 26.9318 146.182 26.0852C146.551 25.2386 146.736 24.1989 146.736 22.9659Z" fill="white"/>
<path d="M151.749 17.2812V14.2386H166.085V17.2812H160.741V31.6932H157.093V17.2812H151.749Z" fill="white"/>
<defs>
<linearGradient id="paint0_linear_428_6" x1="2.83331" y1="26.8333" x2="43.1666" y2="26.8333" gradientUnits="userSpaceOnUse">
<stop stop-color="#2AF598"/>
<stop offset="1" stop-color="#009EFD"/>
</linearGradient>
<linearGradient id="paint1_linear_428_6" x1="2.83331" y1="26.8333" x2="43.1666" y2="26.8333" gradientUnits="userSpaceOnUse">
<stop stop-color="#2AF598"/>
<stop offset="1" stop-color="#009EFD"/>
</linearGradient>
<linearGradient id="paint2_linear_428_6" x1="16.246" y1="14.8543" x2="29.754" y2="14.8543" gradientUnits="userSpaceOnUse">
<stop stop-color="#2AF598"/>
<stop offset="1" stop-color="#009EFD"/>
</linearGradient>
</defs>
</svg>
